<svg xmlns="http://www.w3.org/2000/svg" xml:space="preserve" id="_x32_" width="800" height="800" version="1.1" viewBox="0 0 512 512"><style>.st0{fill:#000}</style><path d="M261.031 153.484h-5.375v7.484h5.375c1.25 0 2.266-.344 3-1.031.766-.688 1.156-1.594 1.156-2.719 0-1.109-.391-2-1.156-2.703-.734-.687-1.75-1.031-3-1.031M140.75 169.141c.141-.391.281-.891.344-1.453.094-.578.141-1.266.172-2.078.031-.797.031-1.766.031-2.891 0-1.109 0-2.063-.031-2.875s-.078-1.5-.172-2.078a6.4 6.4 0 0 0-.344-1.453 4 4 0 0 0-.641-1.078c-.953-1.172-2.359-1.75-4.266-1.75H131.5v18.484h4.344c1.906 0 3.313-.594 4.266-1.75.265-.328.484-.688.64-1.078M88.219 159.938c.75-.688 1.141-1.594 1.141-2.719 0-1.109-.391-2-1.141-2.703-.75-.688-1.75-1.031-3.016-1.031h-5.375v7.484h5.375c1.266 0 2.266-.344 3.016-1.031M229.875 167.219h7.266l-3.578-10.313z" class="st0"/><path d="M466.656 88H45.344C20.313 88 0 108.313 0 133.344v245.313C0 403.688 20.313 424 45.344 424h421.313C491.688 424 512 403.688 512 378.656V133.344C512 108.313 491.688 88 466.656 88m-31 50.313c12.344 0 22.344 10 22.344 22.344S448 183 435.656 183s-22.344-10-22.344-22.344 10.001-22.343 22.344-22.343m-59.781 0c12.344 0 22.344 10 22.344 22.344S388.219 183 375.875 183s-22.344-10-22.344-22.344 10-22.343 22.344-22.343m-99.094 10.218h10.547c2 0 3.703.344 5.141 1 1.406.672 2.625 1.719 3.688 3.156.438.609.781 1.25 1.031 1.938.266.672.469 1.406.563 2.219s.188 1.703.203 2.672c.031.969.047 2.047.047 3.203 0 1.172-.016 2.25-.047 3.219-.016.969-.109 1.844-.203 2.656s-.297 1.563-.563 2.234a8.3 8.3 0 0 1-1.031 1.938c-1.063 1.422-2.281 2.484-3.688 3.141-1.438.672-3.141 1-5.141 1h-10.547zm-79.39 10.532c.047-1.094.156-2.094.328-3.016.188-.922.469-1.766.859-2.516.406-.781.969-1.531 1.703-2.25a11.5 11.5 0 0 1 3.406-2.203c1.266-.516 2.75-.766 4.438-.766 2.734 0 5.063.75 7 2.25s3.156 3.719 3.703 6.703H213c-.281-1.172-.813-2.141-1.594-2.891s-1.875-1.125-3.281-1.125c-.781 0-1.5.125-2.109.391a4.45 4.45 0 0 0-1.547 1.078c-.281.281-.5.625-.672 1s-.328.844-.438 1.438a15 15 0 0 0-.234 2.203 49 49 0 0 0-.094 3.359q0 2.039.094 3.375c.031.891.125 1.625.234 2.219.109.563.266 1.063.438 1.422.172.375.391.703.672 1 .422.453.922.797 1.547 1.078.609.25 1.328.391 2.109.391 1.406 0 2.531-.375 3.297-1.141.797-.75 1.328-1.719 1.625-2.875h5.781c-.547 2.969-1.766 5.203-3.703 6.703-1.938 1.516-4.266 2.266-7 2.266-1.688 0-3.172-.281-4.438-.781a11.5 11.5 0 0 1-3.406-2.219 9.4 9.4 0 0 1-1.703-2.219 10.3 10.3 0 0 1-.859-2.531 22 22 0 0 1-.328-3.016 126 126 0 0 1-.063-3.672c0-1.343.031-2.562.063-3.655m-34.219-10.532h20.969v4.953h-7.625v23.422h-5.703v-23.422h-7.641zm-10.328 0h5.688v28.375h-5.688zm-27.047 0h10.547c2 0 3.688.344 5.125 1 1.422.672 2.656 1.719 3.688 3.156.438.609.781 1.25 1.047 1.938.266.672.453 1.406.563 2.219s.172 1.703.203 2.672.031 2.047.031 3.203c0 1.172 0 2.25-.031 3.219s-.094 1.844-.203 2.656-.297 1.563-.563 2.234-.609 1.328-1.047 1.938c-1.031 1.422-2.266 2.484-3.688 3.141-1.438.672-3.125 1-5.125 1h-10.547zm-24.828 0h19.219v4.953h-13.531v6.641h11.531v4.953h-11.531v6.891h13.531v4.938h-19.219zm-26.844 0h11.453c1.484 0 2.797.25 3.969.703q1.758.703 3 1.875c1.242 1.172 1.453 1.703 1.859 2.75a8.6 8.6 0 0 1 .656 3.359c0 1.016-.156 1.922-.438 2.719a8.4 8.4 0 0 1-1.156 2.125 7.6 7.6 0 0 1-1.719 1.594 8 8 0 0 1-2.031 1.016l6.531 12.234h-6.625l-5.688-11.313h-4.109v11.313h-5.703v-28.375zM60.344 285.75v-21.875h33.25v21.875zm33.25 7v23.625H75.219c-8.219 0-14.875-6.656-14.875-14.875v-8.75zm-33.25-35.875V235h33.25v21.875zm0-28.875v-8.75c0-8.219 6.656-14.875 14.875-14.875h18.375V228zm-12.656-65.281c0-1.344.031-2.563.063-3.656.047-1.094.156-2.094.344-3.016a9.5 9.5 0 0 1 .844-2.516c.406-.781.969-1.531 1.719-2.25 1-.938 2.125-1.688 3.406-2.203 1.25-.516 2.734-.766 4.422-.766 2.734 0 5.078.75 7.016 2.25 1.922 1.5 3.141 3.719 3.688 6.703h-5.813c-.297-1.172-.828-2.141-1.594-2.891-.781-.75-1.875-1.125-3.297-1.125-.797 0-1.484.125-2.109.391s-1.125.625-1.531 1.078c-.281.281-.5.625-.688 1-.172.375-.313.844-.438 1.438q-.164.868-.234 2.203a54 54 0 0 0-.078 3.359c0 1.359.031 2.484.078 3.375s.125 1.625.234 2.219c.125.563.266 1.063.438 1.422.188.375.406.703.688 1 .406.453.906.797 1.531 1.078.625.25 1.313.391 2.109.391 1.422 0 2.531-.375 3.297-1.141.797-.75 1.328-1.719 1.625-2.875h5.781c-.547 2.969-1.766 5.203-3.688 6.703-1.938 1.516-4.281 2.266-7.016 2.266-1.688 0-3.172-.281-4.422-.781a11 11 0 0 1-3.406-2.219 9 9 0 0 1-1.719-2.219 10.3 10.3 0 0 1-.844-2.531c-.188-.922-.297-1.938-.344-3.016a126 126 0 0 1-.062-3.671M128 370.656H48v-16h80zM132.094 228v88.375h-31.5v-112h56.859c8.219 0 14.891 6.656 14.891 14.875V228h-40.25m7 28.875V235h33.25v21.875zm33.25 7v21.875h-33.25v-21.875zm-33.25 52.5V292.75h33.25v8.75c0 8.219-6.672 14.875-14.891 14.875zM240 370.656h-80v-16h80zm.375-193.75-1.719-5.016h-10.375l-1.781 5.016h-5.938l10.625-28.375h4.469l10.688 28.375zm19.375-11.312h-4.094v11.313h-5.703v-28.375h11.453c1.469 0 2.797.25 3.969.703q1.758.703 3 1.875a7.8 7.8 0 0 1 1.859 2.75c.438 1.047.641 2.172.641 3.359 0 1.016-.141 1.922-.438 2.719a7.5 7.5 0 0 1-1.156 2.125c-.5.625-1.063 1.156-1.703 1.594s-1.328.781-2.047 1.016l6.531 12.234h-6.609zM352 370.656h-80v-16h80zm112 0h-80v-16h80zm0-48H304v-16h160z" class="st0"/><path d="M291.75 169.141c.125-.391.266-.891.344-1.453a22 22 0 0 0 .156-2.078c.031-.797.031-1.766.031-2.891 0-1.109 0-2.063-.031-2.875s-.078-1.5-.156-2.078-.219-1.047-.344-1.453a3.6 3.6 0 0 0-.656-1.078c-.938-1.172-2.375-1.75-4.266-1.75h-4.344v18.484h4.344c1.891 0 3.328-.594 4.266-1.75q.422-.493.656-1.078" class="st0"/></svg>