<svg xmlns="http://www.w3.org/2000/svg" xml:space="preserve" viewBox="0 0 256 256"><path d="M18.9 53.1c-3.7 1.7-7.1 5.8-8.1 9.9-1.1 4.2-1.1 126.9 0 130.8.9 3.4 5.2 8.3 8.3 9.6 1.9.8 21.2.9 109.1.9H235l3.2-1.7c1.7-.9 4.2-3.1 5.3-4.8l2.2-3.1.2-64.8c.1-45.6 0-65.7-.6-67.7-1-3.5-4.7-7.6-8.3-9.2-2.7-1.3-7.9-1.4-109-1.4-101.6.1-106.3.2-109.1 1.5m217.4 2.5c1.3.6 3.3 2.2 4.5 3.7l2.1 2.7v66.1c0 65.9 0 66.1-1.5 68.1-.8 1.1-2.6 2.7-3.9 3.6l-2.4 1.7H21l-2.4-1.7c-1.4-.9-3.1-2.7-3.9-4.1-1.5-2.5-1.5-3.2-1.5-67.7V62.9l1.7-2.8c1.1-1.7 2.9-3.2 4.7-4.1 2.8-1.3 7.1-1.4 108.6-1.4 88.8 0 106.1.1 108.1 1"/><path d="M47.5 106.9c-.6 1.3-13.7 39.6-13.7 40.3 0 .1 2.8.1 6.3.1l6.2-.2 2.3-6.8c1.8-5.5 2.6-6.9 3.8-7.1 1.9-.3 2.6 1.1 3.7 7.1 1.4 7.8.7 7.2 8.4 7.2 5 0 6.8-.2 6.8-.9 0-2.2-3.7-14-5-15.6l-1.3-1.8 4-2.2c6.6-3.5 10.8-11.4 8.6-16.1-1.7-3.6-5.3-4.6-17.8-5-11-.4-11.5-.4-12.3 1m15.7 9.2c.9.9.9 1.4-.1 3.6-1.2 2.6-4.6 4.7-7.7 4.7-1.7 0-1.7.1-.4-3.3 2.6-7.2 2.4-7 5-6.5 1.1.3 2.6.9 3.2 1.5M126.3 106.3c-.2.4-3.3 9.3-6.8 19.7-3.6 10.4-6.7 19.5-7 20.2-.4 1.2 0 1.3 5.9 1.1l6.4-.2 2.2-6.3c2.1-6 2.2-6.3 4.4-6.3 3.7 0 10.5-1.5 13.4-3 6-3.1 9.7-7.7 11.4-14.5 1.2-4.5-.4-8.1-4.1-9.7-3.4-1.4-25-2.3-25.8-1m15.6 10.3c1 1.6.1 4.8-2 6.8-1.3 1.3-2.5 1.7-4.7 1.7-2.1 0-2.9-.3-2.6-.9.1-.4.9-2.7 1.7-5l1.3-4.2 2.8.2c1.6.1 3.1.7 3.5 1.4M167.6 117.7c-6.6 1.2-7.1 1.5-8.3 5.3-.6 2-1.1 3.7-.9 3.9.1.1 1.7-.2 3.4-.8 4-1.4 9-1.6 10.4-.4 1.9 1.6 1.4 2.1-2.2 2.6-11.2 1.5-15.8 3.8-18.3 9.2-1.9 4.1-1.7 6.7.4 8.8 2.8 2.9 8.7 2.2 13.9-1.5 1.6-1.2 1.6-1.2.9.7l-.8 1.9h11.4l3-8.5c4.8-13.5 5-17 1.2-19.9-1.5-1.2-3.2-1.5-7.1-1.6-2.9 0-6 .1-7 .3m1.8 19.4c-2.2 3.4-6.8 4.2-6.8 1.2 0-1.9 1.7-3.2 4.9-3.7 3.1-.6 3.6-.1 1.9 2.5M79.9 128.9c-4.2 12.6-4.5 14.9-1.8 17.6 1.7 1.6 2.3 1.8 5.8 1.5 2.9-.3 4.8-.9 7.1-2.6l3.2-2.2-.6 1.8c-.4 1-.7 1.9-.7 2.2s2.8.2 6.3.1l6.2-.2 4.5-13.3c2.4-7.3 4.7-13.9 5-14.6.5-1.2.1-1.3-5.8-1.1l-6.3.2-2.4 7.2c-1.3 4-2.9 8.3-3.5 9.8-1.8 4.2-6.8 5.5-6.8 1.8 0-.9 1.3-5.5 2.9-10.1 1.6-4.7 2.9-8.6 2.9-8.8s-2.7-.2-6-.2h-6zM190 119.9c0 1.1.5 7.8 1.1 14.9l1.2 13-2.7 2.4c-2.5 2.4-4.2 2.7-8.1 1.5-1.1-.3-4 7-3.3 8.5.2.6 1.9.9 5.5.9 6.2 0 9.9-1.6 14.5-6 2.5-2.5 25.4-34.4 26.3-36.6.1-.4-2.4-.6-5.7-.4l-6 .2-5.3 9.2c-3 5-5.4 9.1-5.5 9s.2-4.3.6-9.4l.9-9.1H190z"/></svg>