<svg width="20" height="20" viewBox="0 0 20 20" fill="none" xmlns="http://www.w3.org/2000/svg">
<path d="M12.8797 14.1103L8.68664 18.3946C8.10149 18.9925 8.52508 19.9998 9.36169 19.9998H16.2559C16.9994 19.9998 17.4514 19.1805 17.0549 18.5515L14.3537 14.2672C14.0284 13.7512 13.3064 13.6743 12.8797 14.1103Z" fill="#72AEE6"/>
<path d="M8.99282 0.431438C9.40078 0.0246003 9.98431 -0.111279 10.4335 0.0959774L18.2985 3.7252C18.9908 4.04463 19.0561 5.00611 18.4282 5.63401L6.91133 17.1509C6.28676 17.7754 5.33079 17.7147 5.00661 17.03L1.30711 9.21503C1.09354 8.76389 1.22947 8.17347 1.64151 7.76257L8.99282 0.431438Z" fill="#72AEE6"/>
<path d="M8.99282 0.431438C9.40078 0.0246003 9.98431 -0.111279 10.4335 0.0959774L18.2985 3.7252C18.9908 4.04463 19.0561 5.00611 18.4282 5.63401L6.91133 17.151C6.28676 17.7756 5.33079 17.7149 5.00661 17.0301L1.30711 9.2151C1.09354 8.76396 1.22947 8.17348 1.64151 7.76257L8.99282 0.431438Z" fill="#72AEE6"/>
</svg>
