<svg width="20" height="20" viewBox="0 0 20 20" fill="none" xmlns="http://www.w3.org/2000/svg">
<path d="M12.6727 14.1103L8.47961 18.3946C7.89446 18.9925 8.31805 19.9998 9.15466 19.9998H16.0489C16.7924 19.9998 17.2444 19.1805 16.8479 18.5515L14.1467 14.2672C13.8213 13.7512 13.0994 13.6743 12.6727 14.1103Z" fill="#F0F6FC" fill-opacity="0.6"/>
<path d="M8.78579 0.431438C9.19374 0.0246003 9.77728 -0.111279 10.2264 0.0959773L18.0915 3.7252C18.7837 4.04463 18.849 5.00611 18.2211 5.63401L6.7043 17.1509C6.07972 17.7754 5.12376 17.7147 4.79958 17.03L1.10008 9.21503C0.886513 8.76388 1.02244 8.17347 1.43448 7.76257L8.78579 0.431438Z" fill="#F0F6FC" fill-opacity="0.6"/>
<path d="M8.78579 0.431438C9.19374 0.0246003 9.77728 -0.111279 10.2264 0.0959773L18.0915 3.7252C18.7837 4.04463 18.849 5.00611 18.2211 5.63401L6.7043 17.151C6.07972 17.7756 5.12376 17.7149 4.79958 17.0301L1.10008 9.2151C0.886513 8.76396 1.02244 8.17348 1.43448 7.76257L8.78579 0.431438Z" fill="#F0F6FC" fill-opacity="0.6"/>
</svg>
