<?xml version="1.0" encoding="utf-8"?>
<!-- Generator: Adobe Illustrator 26.1.0, SVG Export Plug-In . SVG Version: 6.00 Build 0)  -->
<svg version="1.1" id="Слой_1" xmlns="http://www.w3.org/2000/svg" xmlns:xlink="http://www.w3.org/1999/xlink" x="0px" y="0px"
	 viewBox="0 0 499 613" style="enable-background:new 0 0 499 613;" xml:space="preserve">
<style type="text/css">
	.st0{clip-path:url(#SVGID_00000090290538289352187780000015645616499198188958_);}
	.st1{opacity:0.15;enable-background:new    ;}
	.st2{fill:#B3B3B3;}
	.st3{fill:#666666;}
	.st4{fill:#D1D2D3;}
	.st5{fill:#AA7D33;}
	.st6{fill:#EDA11B;}
	.st7{fill:#808080;}
	.st8{fill:#6D6D6D;}
	.st9{fill:#E8E8E8;}
	.st10{fill:#AAAAAA;}
	.st11{opacity:0.5;}
	.st12{fill:#E6E6E6;}
	.st13{fill:#F4B042;}
	.st14{fill:#D8911E;}
	.st15{fill:#FFD246;}
	.st16{fill:#FFFFFF;}
	.st17{fill:#C68938;}
	.st18{fill:#CCCCCC;}
	.st19{fill:#CECECE;}
	.st20{fill:#EAEAEA;}
	.st21{fill:#F7BD61;}
	.st22{fill:#9E691B;}
	.st23{fill:#E5B93C;}
	.st24{fill:#F2C47C;}
	.st25{fill:#FF4848;}
	.st26{fill:#9E2A3D;}
	.st27{opacity:0.25;}
	.st28{fill:#5D1B43;}
	.st29{fill:#FF5C97;}
	.st30{fill:#DB3581;}
	.st31{fill:#8C1B53;}
	.st32{opacity:0.45;}
	.st33{fill:#45446C;}
	.st34{fill:#15253D;}
	.st35{fill:#13263D;}
	.st36{fill:#E1EAF4;}
	.st37{fill:#FFC2B0;}
	.st38{fill:#00AFAF;}
	.st39{fill:none;stroke:#FCFEFF;stroke-width:1.299;stroke-miterlimit:10;}
	.st40{fill:#283D75;}
	.st41{fill:#CEAB8B;}
	.st42{fill:#00C1C4;}
	.st43{fill:#008985;}
	.st44{fill:#00DBDB;}
	.st45{fill:#FCFEFF;}
	.st46{fill:#EA8A6C;}
	.st47{opacity:0.46;fill:#FFFFFF;enable-background:new    ;}
	.st48{fill:#A8C4E5;}
	.st49{fill:#DBDBDB;}
	.st50{fill:none;stroke:#FCFEFF;stroke-width:1.309;stroke-miterlimit:10;}
</style>
<g>
	<defs>
		<rect id="SVGID_1_" x="-157" y="0" width="656" height="613"/>
	</defs>
	<clipPath id="SVGID_00000175282023072161182930000013974091795578118291_">
		<use xlink:href="#SVGID_1_"  style="overflow:visible;"/>
	</clipPath>
	<g id="Group_688_1" style="clip-path:url(#SVGID_00000175282023072161182930000013974091795578118291_);">
		<g id="_x34_04-animation">
			<g id="Group">
				<path id="Vector" class="st1" d="M499,486.9L221.3,326.6L3,452.6l68.8,39.7l-2.9,1.7l7.7,4.6L91.2,538l70.4,8.7l10.3,5.2
					l1.5-0.9L280.7,613L499,486.9z"/>
				<g id="Group_2">
					<g id="Group_3">
						<path id="Vector_2" class="st2" d="M342.8,481.5l-8.6,39.7l-204.1-121l8.6-39.7L342.8,481.5z"/>
						<path id="Vector_3" class="st3" d="M148.6,355.2l-9.9,5.3l204.1,121l9.9-5.3L148.6,355.2z"/>
						<path id="Vector_4" class="st4" d="M352.7,476.2l-8.6,39.7l-9.9,5.3l8.6-39.7L352.7,476.2z"/>
					</g>
					<g id="Group_4">
						<path id="Vector_5" class="st5" d="M434.3,233.9l-8.6,42.5L202.8,148.4l8.6-42.5L434.3,233.9z"/>
						<path id="Vector_6" class="st6" d="M222.2,100.1l-10.7,5.7l222.9,128.1l10.7-5.7L222.2,100.1z"/>
						<path id="Vector_7" class="st4" d="M445,228.2l-8.6,42.5l-10.7,5.7l8.6-42.5L445,228.2z"/>
					</g>
					<g id="Group_5">
						<path id="Vector_8" class="st5" d="M445,382l-8.6,42.5L213.5,296.4l8.6-42.5L445,382z"/>
						<path id="Vector_9" class="st6" d="M232.8,248.2l-10.7,5.7L445,382l10.7-5.7L232.8,248.2z"/>
						<path id="Vector_10" class="st6" d="M455.7,376.2l-8.6,42.5l-10.7,5.7L445,382L455.7,376.2z"/>
					</g>
					<g id="Group_6">
						<path id="Vector_11" class="st7" d="M102.5,350v32.8l120.2-69.4v-32.8L102.5,350z"/>
						<path id="Vector_12" class="st2" d="M215.6,276.5l7.1,4.1L102.5,350l-7.1-4.1L215.6,276.5z"/>
						<path id="Vector_13" class="st8" d="M95.4,345.9v32.8l7.1,4.1V350L95.4,345.9z"/>
					</g>
					<g id="Group_7">
						<path id="Vector_14" class="st3" d="M448.4,217.4l32.4,279.5L443.1,475l-32.4-280L448.4,217.4z"/>
						<path id="Vector_15" class="st4" d="M456.8,213.8L489.1,492l-8.2,4.8l-32.4-279.5L456.8,213.8z"/>
						<path id="Vector_16" class="st9" d="M419.6,191.7l37.2,22.2l-8.4,3.5L410.8,195L419.6,191.7z"/>
					</g>
					<g id="Group_8">
						<path id="Vector_17" class="st3" d="M222.5,86.1l32.2,278l-37.7-22L184.9,63.9L222.5,86.1z"/>
						<path id="Vector_18" class="st4" d="M230.9,82.6l32.1,276.8l-8.2,4.7l-32.2-278L230.9,82.6z"/>
						<path id="Vector_19" class="st9" d="M193.9,60.6l37,22l-8.4,3.5l-37.6-22.3L193.9,60.6z"/>
					</g>
					<g id="Group_9">
						<path id="Vector_20" class="st8" d="M449.5,216.8l-77,342.8l-12.4,7.1L437.8,221L449.5,216.8z"/>
						<path id="Vector_21" class="st4" d="M437.8,221l-77.6,345.7l-38.3-21.5L399.6,199L437.8,221z"/>
					</g>
					<path id="Vector_22" class="st9" d="M411.3,194.8l38.1,22l-11.7,4.2l-38.1-22L411.3,194.8z"/>
					<g id="Group_10">
						<path id="Vector_23" class="st4" d="M211.3,90.1l-78.2,348.1l-38.1-22l78.2-348.1L211.3,90.1z"/>
						<path id="Vector_24" class="st8" d="M223,85.9l-77.5,345.2l-12.4,7.2l78.2-348.1L223,85.9z"/>
					</g>
					<path id="Vector_25" class="st9" d="M184.9,63.9l38.1,22l-11.7,4.2l-38.1-22L184.9,63.9z"/>
					<g id="Vector_26">
						<path class="st10" d="M222.7,87.6l4.5,39.2l-11.8-6.8L222.7,87.6z"/>
					</g>
					<g id="Group_11">
						<path id="Vector_27" class="st2" d="M373.6,505.9v32.8l120.2-69.4v-32.8L373.6,505.9z"/>
						<path id="Vector_28" class="st7" d="M486.7,432.4l7.1,4.1l-120.2,69.4l-7.1-4.1L486.7,432.4z"/>
						<path id="Vector_29" class="st8" d="M366.5,501.8v32.8l7.1,4.1v-32.8L366.5,501.8z"/>
					</g>
					<g id="Vector_30">
						<path class="st10" d="M448.8,220.1l4.3,36.4l-11-6.3L448.8,220.1z"/>
					</g>
					<g id="Group_12" class="st11">
						<g id="Vector_31" class="st11">
							<path class="st12" d="M382,469.6l9.6,5.5l-0.9,3.7l-9.9-4l-38.2-22l1.2-5.2L382,469.6z"/>
						</g>
						<g id="Vector_32" class="st11">
							<path class="st12" d="M372.2,321.4l38.2,22l9.6,5.5l-0.9,3.7l-9.9-4l-38.2-22L372.2,321.4z"/>
						</g>
						<g id="Vector_33" class="st11">
							<path class="st12" d="M145.6,191.1l38.2,21.9l9.5,5.5l-0.8,3.7l-9.9-4l-38.2-21.9L145.6,191.1z"/>
						</g>
						<g id="Vector_34" class="st11">
							<path class="st12" d="M117.2,317.4l38.2,21.9l9.5,5.5l-0.8,3.7l-9.9-4l-38.2-22L117.2,317.4z"/>
						</g>
					</g>
					<g id="Group_13">
						<g id="Group_14">
							<path id="Vector_35" class="st13" d="M146.7,80.7L465.8,264l-10.3,6.1L136.4,86.8L146.7,80.7z"/>
							<path id="Vector_36" class="st14" d="M465.8,264l-13.7,91.2l-10.3,6.1l13.7-91.2L465.8,264z"/>
							<path id="Vector_37" class="st15" d="M136.4,86.8l319.1,183.4l-13.7,91.2L122.6,178L136.4,86.8z"/>
							<g id="Group_15">
								<path id="Vector_38" class="st16" d="M441.1,361l-38.9-22.4l-10.6-105.2l38.9,22.4L441.1,361z"/>
								<path id="Vector_39" class="st16" d="M357.7,313l-38.9-22.4l-10.6-105.2l38.9,22.4L357.7,313z"/>
								<path id="Vector_40" class="st16" d="M274.3,265.1l-38.9-22.4l-10.6-105.2l38.9,22.4L274.3,265.1z"/>
								<path id="Vector_41" class="st16" d="M180.3,112l10.6,105.2l-38.9-22.4L141.4,89.6L180.3,112z"/>
							</g>
							<path id="Vector_42" class="st16" d="M308.2,185.5l24.8,2.2l37.8,21.7l-23.6-1.5L308.2,185.5z"/>
							<path id="Vector_43" class="st16" d="M391.6,233.4l24.8,2.2l37.8,21.7l-23.6-1.5L391.6,233.4z"/>
							<path id="Vector_44" class="st16" d="M224.8,137.6l24.8,2.2l37.8,21.7l-23.7-1.5L224.8,137.6z"/>
							<path id="Vector_45" class="st16" d="M141.4,89.6l24.8,2.2l37.8,21.7l-23.6-1.5L141.4,89.6z"/>
						</g>
						<g id="Group_16">
							<path id="Vector_46" class="st17" d="M123.7,209.9l319.1,183.4l-10.3,6.1L113.3,216.1L123.7,209.9z"/>
							<path id="Vector_47" class="st14" d="M442.7,393.3L429,484.5l-10.3,6.1l13.7-91.2L442.7,393.3z"/>
							<path id="Vector_48" class="st15" d="M113.3,216.1l319.1,183.4l-13.7,91.2L99.6,307.2L113.3,216.1z"/>
							<g id="Group_17">
								<path id="Vector_49" class="st16" d="M418,490.2l-38.9-22.4l-10.6-105.2l38.9,22.4L418,490.2z"/>
								<path id="Vector_50" class="st16" d="M334.6,442.3l-38.9-22.4l-10.6-105.2l38.9,22.4L334.6,442.3z"/>
								<path id="Vector_51" class="st16" d="M251.2,394.4L212.3,372l-10.6-105.2l38.9,22.4L251.2,394.4z"/>
								<path id="Vector_52" class="st16" d="M157.2,241.3l10.6,105.2l-38.9-22.4l-10.6-105.2L157.2,241.3z"/>
							</g>
							<path id="Vector_53" class="st16" d="M285.1,314.8l24.8,2.2l37.8,21.7l-23.6-1.5L285.1,314.8z"/>
							<path id="Vector_54" class="st16" d="M368.5,362.7l24.8,2.2l37.9,21.8l-23.7-1.5L368.5,362.7z"/>
							<path id="Vector_55" class="st16" d="M201.7,266.8l24.8,2.2l37.8,21.7l-23.6-1.5L201.7,266.8z"/>
							<path id="Vector_56" class="st16" d="M118.3,218.9l24.8,2.2l37.8,21.7l-23.6-1.5L118.3,218.9z"/>
						</g>
					</g>
					<g id="Group_18">
						<path id="Vector_57" class="st8" d="M483.1,455.7c1.5-0.9,2.7-0.2,2.7,1.6c-0.1,0.9-0.3,1.8-0.8,2.7c-0.5,0.8-1.1,1.5-1.9,2
							c-1.5,0.9-2.7,0.2-2.7-1.6c0.1-0.9,0.3-1.8,0.8-2.7C481.7,456.9,482.3,456.2,483.1,455.7z"/>
						<path id="Vector_58" class="st8" d="M380.7,514.2c1.5-0.9,2.7-0.2,2.7,1.6c0,0.9-0.3,1.8-0.8,2.7c-0.5,0.8-1.1,1.5-1.9,2
							c-1.5,0.9-2.7,0.2-2.7-1.6c0.1-0.9,0.3-1.8,0.8-2.7C379.2,515.4,379.9,514.7,380.7,514.2z"/>
					</g>
					<g id="Group_19">
						<g id="Vector_59">
							<path class="st18" d="M435.8,205.8l-1.6,13.2l-29.4-17l31,2L435.8,205.8z"/>
						</g>
						<path id="Vector_60" class="st19" d="M412,161.5c2.1-0.2,10.6-0.1,12.8,0c2.5,0.2,4.8,0.9,6.9,2.2c9.1,5.3,16.5,18,16.5,28.6
							c0,7.2-3.5,11.4-8.6,11.7c-0.7,0-2.2,0.1-3.9,0.1v1.7c0,0.4-0.1,0.7-0.3,1c-0.4,0.7-1,1.2-1.7,1.6c-0.7,0.4-1.5,0.6-2.3,0.7
							c-1,0-1.6-0.5-1.6-1.2V204c-1,0-1.9,0-2.4,0c-2.5-0.1-5-0.9-7.2-2.2c-9.1-5.3-16.5-18-16.5-28.6
							C403.8,166.2,407.1,161.9,412,161.5z"/>
						<path id="Vector_61" class="st20" d="M436.7,202.5c3.5-1.3,5.7-5,5.7-10.7c0-10-6.9-22.2-15.3-27.2c-2.3-1.4-3.5-2.2-2.2-2.1
							c2.3,0.2,4.5,0.9,6.5,2.1c8.5,5,15.3,17.2,15.3,27.2c0,6.9-3.2,10.9-8,11.2C437.5,203,436,202.8,436.7,202.5z"/>
						<g id="right-light">
							<path id="Vector_62" class="st6" d="M419.4,166c8,4.6,14.4,15.8,14.4,25c0,9.2-6.5,12.9-14.4,8.3c-8-4.6-14.4-15.8-14.4-25
								S411.4,161.4,419.4,166z"/>
							<path id="Vector_63" class="st21" d="M417.9,173.4c4.8,2.8,8.7,9.5,8.7,15.1c0,5.5-3.9,7.8-8.7,5s-8.7-9.5-8.7-15.1
								S413,170.6,417.9,173.4z"/>
						</g>
						<path id="Vector_64" class="st7" d="M425.8,201.4c-2.3-0.1-4.5-0.8-6.4-2c-4.3-2.7-7.8-6.4-10.2-10.8
							c-2.6-4.3-4.1-9.2-4.2-14.2c-0.1-2.7,0.6-5.4,2.2-7.6c0.7-0.9,1.6-1.6,2.6-2c1-0.5,2.1-0.7,3.2-0.7c2.3,0.1,4.5,0.8,6.4,2
							c4.3,2.7,7.8,6.4,10.2,10.8c2.6,4.3,4.1,9.2,4.2,14.2c0.1,2.7-0.6,5.4-2.2,7.6c-0.7,0.9-1.6,1.6-2.6,2
							C428,201.2,426.9,201.4,425.8,201.4z M413.3,165.3c-1,0-2.1,0.2-3,0.6c-0.9,0.4-1.8,1.1-2.4,1.9c-1.5,2.1-2.2,4.6-2.1,7.1
							c0,8.6,6.1,19.1,13.5,23.4c1.8,1.1,3.9,1.8,6,1.8c1,0,2.1-0.2,3-0.6c0.9-0.4,1.8-1.1,2.4-1.9c1.5-2.1,2.2-4.6,2.1-7.1
							c-0.2-4.7-1.5-9.3-4-13.3c-2.3-4.1-5.6-7.6-9.5-10.1C417.6,166,415.5,165.4,413.3,165.3z"/>
					</g>
					<g id="Group_20">
						<g id="Vector_65">
							<path class="st18" d="M208.5,74.3l-1.6,13.2l-29.4-17l31,2L208.5,74.3z"/>
						</g>
						<path id="Vector_66" class="st19" d="M184.7,30c2.1-0.2,10.6-0.1,12.8,0c2.5,0.2,4.8,0.9,6.9,2.2c9.1,5.3,16.5,18,16.5,28.6
							c0,7.2-3.5,11.4-8.6,11.7c-0.7,0-2.2,0.1-3.9,0.1v1.7h0c0,0.4-0.1,0.7-0.3,1c-0.4,0.7-1,1.2-1.7,1.6c-0.7,0.4-1.5,0.6-2.3,0.7
							c-1,0-1.6-0.5-1.6-1.2v-3.8c-1,0-1.9,0-2.4,0c-2.5-0.1-5-0.9-7.2-2.2c-9.1-5.3-16.5-18-16.5-28.6
							C176.5,34.7,179.8,30.5,184.7,30z"/>
						<path id="Vector_67" class="st20" d="M209.3,71.1c3.5-1.3,5.7-5,5.7-10.7c0-10-6.9-22.2-15.3-27.2c-2.3-1.4-3.5-2.2-2.2-2.1
							c2.3,0.2,4.5,0.9,6.5,2.1c8.5,5,15.3,17.2,15.3,27.2c0,6.9-3.2,10.9-8,11.2C210.2,71.6,208.6,71.3,209.3,71.1z"/>
						<g id="left-light">
							<path id="Vector_68" class="st6" d="M192,34.6c8,4.6,14.4,15.8,14.4,25S200,72.5,192,67.9s-14.4-15.8-14.4-25
								S184.1,30,192,34.6z"/>
							<path id="Vector_69" class="st21" d="M190.5,42c4.8,2.8,8.7,9.5,8.7,15.1s-3.9,7.8-8.7,5c-4.8-2.8-8.7-9.5-8.7-15.1
								S185.7,39.2,190.5,42z"/>
						</g>
						<path id="Vector_70" class="st7" d="M198.5,69.9c-2.3-0.1-4.5-0.8-6.4-2c-4.3-2.7-7.8-6.4-10.2-10.8
							c-2.6-4.3-4.1-9.2-4.2-14.2c-0.1-2.7,0.6-5.4,2.2-7.6c0.7-0.9,1.6-1.6,2.6-2c1-0.5,2.1-0.7,3.2-0.7c2.3,0.1,4.5,0.8,6.4,2
							c4.3,2.7,7.8,6.4,10.2,10.8c2.6,4.3,4.1,9.2,4.2,14.2c0.1,2.7-0.6,5.4-2.2,7.6c-0.7,0.9-1.6,1.6-2.6,2
							C200.7,69.7,199.6,69.9,198.5,69.9z M186,33.8c-1,0-2.1,0.2-3,0.6c-0.9,0.4-1.8,1.1-2.4,1.9c-1.5,2.1-2.2,4.6-2.1,7.1
							c0,8.6,6.1,19.1,13.5,23.4c1.8,1.1,3.9,1.8,6,1.8c1,0,2.1-0.2,3-0.6c0.9-0.4,1.8-1.1,2.4-1.9c1.5-2.1,2.2-4.6,2.1-7.1
							c-0.2-4.7-1.5-9.3-4-13.3c-2.3-4.1-5.6-7.6-9.5-10.1C190.2,34.5,188.2,33.9,186,33.8L186,33.8z"/>
					</g>
					<g id="Vector_71">
						<path class="st10" d="M241.1,246.4l1.5,13.3l-38.2-21.2l-1.6-14L241.1,246.4z"/>
					</g>
				</g>
				<g id="caution-sign">
					<path id="Vector_72" class="st22" d="M177.2,541.4v4.9l-98.5-56.9l0.1-4.9L177.2,541.4z"/>
					<path id="Vector_73" class="st6" d="M198.7,529v4.9l-21.5,12.4v-4.9L198.7,529z"/>
					<path id="Vector_74" class="st23" d="M100.2,472.2l98.5,56.9l-21.5,12.4l-98.5-56.9L100.2,472.2z"/>
					<path id="Vector_75" class="st24" d="M141,406l-6,2.1L178.6,534l5.6-3.3L141,406z"/>
					<g id="Group_21">
						<path id="Vector_76" class="st15" d="M135,408.1L178.6,534l-87.2-50.4L135,408.1z"/>
					</g>
					<g id="Group_22">
						<path id="Vector_77" class="st25" d="M95.3,482.2l38.7-67.1l38.7,111.8L95.3,482.2z M101.6,480.5l62.9,36.3L133,426.1
							L101.6,480.5z"/>
					</g>
					<g id="Group_23">
						<g id="Vector_78">
							<path class="st26" d="M131.9,480l-2.2-1.3c-0.5-6.1-1-12.4-1.6-19c-0.6-6.6-0.9-10.4-0.9-11.5c-0.1-0.5,0-1,0.2-1.4
								s0.5-0.8,0.8-1.1c0.4-0.2,0.9-0.3,1.3-0.3c0.5,0,0.9,0.2,1.3,0.5c1.1,0.7,2,1.6,2.6,2.8c0.6,1.1,1,2.4,1,3.7
								c0,1.1-0.3,4.6-0.9,10.4S132.3,474.4,131.9,480z"/>
						</g>
						<g id="Vector_79">
							<path class="st26" d="M128,484.9c0.4-0.2,0.9-0.3,1.4-0.3c0.5,0,0.9,0.2,1.3,0.5c1.1,0.7,2.1,1.7,2.7,2.9
								c0.7,1.1,1.1,2.5,1.1,3.8c0.1,0.5,0,1-0.2,1.4c-0.2,0.4-0.5,0.8-0.9,1.1c-0.4,0.2-0.9,0.3-1.4,0.2c-0.5-0.1-0.9-0.2-1.3-0.5
								c-1.1-0.7-2.1-1.7-2.7-2.9c-0.7-1.1-1.1-2.4-1.1-3.8c-0.1-0.5,0-1,0.2-1.4C127.3,485.6,127.6,485.2,128,484.9z"/>
						</g>
					</g>
					<g id="Vector_80">
						<path class="st2" d="M178.6,534l-6.8,4.4l-87.6-50.6l7.1-4.2L178.6,534z"/>
					</g>
				</g>
				<g id="_x34_04-sign">
					<g id="Vector_81" class="st27">
						<path class="st28" d="M434,503.6l-7.5,67.9l-25,17.6l-8.7-4.9l2.3-152.8L434,503.6z"/>
					</g>
					<path id="Vector_82" class="st29" d="M321.5,398.8l66.3,38l31.3,73.4l-6.9,61.4L369,602.3l-66.3-38L271.4,491l6.9-61.4
						L321.5,398.8z"/>
					<path id="Vector_83" class="st16" d="M283.7,435.2l-6.4,56.6l28.8,67.6l60.9,34.9l39.8-28.3l6.4-56.6l-28.8-67.6l-60.9-34.9
						L283.7,435.2z M286.7,438.5l37.8-26.9l58,33.2l27.3,64.1l-6,53.6l-37.8,26.9l-58-33.2l-27.3-64.1L286.7,438.5z"/>
					<path id="Vector_84" class="st30" d="M328.9,393.6l-7.3,5.2l66.3,38l7.3-5.2L328.9,393.6z"/>
					<path id="Vector_85" class="st30" d="M395.1,431.6l-7.3,5.2l31.3,73.4l7.3-5.2L395.1,431.6z"/>
					<path id="Vector_86" class="st31" d="M426.4,505l-6.9,61.4l-7.3,5.2l6.9-61.4L426.4,505z"/>
					<g id="Group_24">
						<path id="Vector_87" class="st16" d="M327.5,496.7l-1.1,10.2l-1.9-1.1l-1,9.1l-10-5.7l1-9.1l-14.7-8.4l1-8.9l13.5-29.8
							l15.1,8.7l-3.8,34L327.5,496.7z M310.2,486.8l5.4,3.1l2.7-24.2L310.2,486.8z"/>
						<path id="Vector_88" class="st16" d="M330.6,501.8l2.4-21c0.6-5.5,2.2-9.1,4.6-10.6c2.5-1.5,5.7-1.1,9.8,1.2
							c3.9,2.1,7.1,5.5,9,9.6c1.8,4,2.4,8.8,1.8,14.3l-2.4,21c-0.2,2-0.7,4.1-1.4,6c-0.5,1.4-1.4,2.6-2.5,3.6
							c-0.9,0.8-2,1.3-3.2,1.5c-1.2,0.2-2.4,0.2-3.6-0.1c-1.3-0.3-2.6-0.9-3.8-1.5c-1.3-0.8-2.5-1.7-3.6-2.7
							c-1.2-1.1-2.3-2.4-3.2-3.8c-1-1.5-1.8-3.1-2.5-4.8c-0.7-1.9-1.2-3.9-1.4-5.9C330.3,506.3,330.3,504,330.6,501.8z M345.4,511.5
							l2.6-23.5c0.1-0.6,0.1-1,0.1-1.4c0-0.5,0-0.9,0-1.4c0-0.5-0.1-1-0.2-1.4c-0.1-0.4-0.3-0.8-0.6-1.2c-0.3-0.4-0.7-0.7-1.1-1
							c-0.3-0.2-0.8-0.3-1.2-0.3c-0.3,0-0.6,0.2-0.8,0.4c-0.2,0.3-0.4,0.7-0.5,1c-0.1,0.4-0.2,0.8-0.3,1.2c0,0.3-0.1,0.8-0.2,1.4
							l-2.6,23.5c-0.2,1.1,0,2.3,0.4,3.3c0.3,0.8,0.8,1.5,1.5,1.9c0.3,0.2,0.6,0.2,0.9,0.2c0.3,0,0.6-0.1,0.8-0.3
							c0.3-0.3,0.6-0.7,0.8-1.1C345.3,512.4,345.4,512,345.4,511.5L345.4,511.5z"/>
						<path id="Vector_89" class="st16" d="M385.4,529.8l-1.1,10.2l-1.9-1.1l-1,9.1l-10-5.7l1-9.1l-14.7-8.4l1-8.9l13.5-29.8
							l15.1,8.6l-3.8,34L385.4,529.8z M368.2,520l5.4,3.1l2.7-24.2L368.2,520z"/>
					</g>
				</g>
				<g id="Vector_90">
					<path class="st10" d="M459.1,308.9l5.6,48.7l-31.8,29.8l-3.7-33.2l12.6,7.2l10.3-6.1L459.1,308.9z"/>
				</g>
				<g id="Vector_91">
					<path class="st10" d="M474.2,439.6l-34.9,2.7l1.9,16.3L474.2,439.6z"/>
				</g>
			</g>
			<g id="Vector_126" class="st32">
				<path class="st33" d="M289.2,132.8l-19,14.8l3.4,1.9c-1.7,1.6-3.3,3.5-4.6,5.4c-5.6,8.3-7.3,16.8-8.3,26.6
					c-1.4,13.4-2.1,27-0.7,40.5c-0.2,0-0.4,0-0.6,0c-0.2,0-0.4,0.1-0.5,0.3c-0.2,0.1-0.3,0.3-0.4,0.4c-0.1,0.2-0.1,0.4-0.2,0.6
					l-0.6,7c0,0.2,0,0.5,0.1,0.7c0.1,0.2,0.3,0.4,0.5,0.6c1.6,1.1,3.3,2,5.1,2.6c0.1,0.3,0.2,0.6,0.4,0.9
					c-5.2,1.6-10.3,3.7-15.2,6.1l-4.4,3l-4.2,2.9c-0.3,0.2-0.6,0.5-0.8,0.8c-0.2,0.3-0.4,0.6-0.4,1c0,0.2-0.1,0.5,0,0.7
					c-0.3,0.3-0.5,0.7-0.6,1.1c-0.1,0.4-0.1,0.9-0.1,1.3c0.4,2.4,3.1,4.4,5.9,4.4c4.8-0.1,7.2,0.8,14.7-1.6c0.4-0.1,5.1-3.1,5.5-3.2
					c0.6-0.2,7-2.6,8-3c1.4-0.6,3.9-0.9,5.1-2.8l-0.6,2.2c-0.1,0.2-0.1,0.5,0,0.8s0.2,0.5,0.3,0.7c0.7,0.8,1.4,1.4,2.3,2.1
					c0.3,0.9,0.8,1.7,1.3,2.5l0,0.1c-1.7,1.7-3.2,3.5-4.5,5.4c-1.2,1.7-4.1,5.3-5.1,6.5c-1.1,1.5-2,3.2-2.7,4.9l-1.7,4.5
					c-0.1,0.4-0.2,0.7-0.1,1.1l-0.3,0.9c-0.5,1.1,0.3,2.5,1.2,3.4l0.6,0.3c3.9,1.8,6.5,1.4,8.7-0.1c3.7-2.5,5.1-2.6,9.5-8.2
					c0.3-0.3,4.2-5.1,5.5-8.1c0.6-1.4,1-2.8,1.4-4.3c0.2-0.9,0.3-1.8,0.2-2.6c0.1-0.4,0.1-0.7,0.1-1.1c0.3-0.2,0.6-0.4,0.9-0.6
					c2.1-0.6,4.1-1.7,5.7-3.3c0.2-0.2,0.4-0.5,0.4-0.8l1.6-7.1c0.1-0.3,0.1-0.6,0-0.9c-0.1-0.3-0.3-0.5-0.6-0.7
					c-0.3-0.2-0.6-0.2-0.9-0.2c-0.3,0.1-0.6,0.2-0.8,0.5l-0.2-0.1c2.8-10.4,6.1-20.6,9.4-30.8c1.1-3.3,1.9-6.6,2.9-10
					c0.5-1.7,1-3.4,1.6-5.1c0.3-0.8,0.6-1.7,0.9-2.5c0.1-0.2,0.1-0.3,0.2-0.4c0-0.1,0.1-0.2,0.2-0.3c2.7-5.4,5.8-8.7,10.8-12.3
					c4.8-3.4,9.7-6.5,14.7-9.6c1.3-0.8,2.3-1.9,3-3.2c0.7-1.3,1-2.8,1-4.3c-0.1-1.5-0.5-2.9-1.3-4.2c-0.8-1.2-1.9-2.3-3.3-2.9
					L289.2,132.8z M298.5,184.3c-3.5,7-5,14.5-7.3,21.9c-3.6,11.3-7.3,22.4-10.3,33.8c-0.2-0.1-0.4-0.1-0.6-0.1
					c-0.2,0-0.4,0.1-0.6,0.2c-0.2,0.1-0.4,0.2-0.5,0.4c-0.1,0.2-0.2,0.4-0.3,0.6l-0.7,2.5c0-0.3,0-0.7,0-1c0.7-1.2,0.9-2.9,0.1-5.4
					c-0.3-0.9-0.8-1.6-1.6-2.2c1.9-0.9,3.5-2.2,4.7-3.9c0.2-0.2,0.3-0.5,0.3-0.8l0.2-6.8c0-0.2,0-0.5-0.2-0.7
					c-0.1-0.2-0.3-0.4-0.5-0.5c-0.2-0.1-0.5-0.2-0.7-0.2c-0.2,0-0.5,0.1-0.7,0.2c-0.3,0.2-0.6,0.3-0.9,0.5
					c-1.7-12.7-0.7-26.2,0.5-38.9c0.3-3.7,0.8-7.3,1.6-11l0-0.1c0.1-0.3,0.3-0.6,0.4-0.9c0.4-0.8,0.7-1.6,1.1-2.3
					c0.8-1.7,1.8-3.2,2.8-4.8c0.1-0.1,0.1-0.2,0.2-0.3c0,0,0.1-0.1,0.1-0.1c0.5-0.5,1-1,1.5-1.6c0.4-0.3,0.7-0.7,1.1-1
					c0.3-0.2,0.6-0.4,0.9-0.6c0.8-0.4,1.6-0.9,2.3-1.3l4,2.3l14.5,8.4C305.3,174.2,301.3,178.9,298.5,184.3z"/>
			</g>
			<g id="green-man">
				<path id="Vector_127" class="st34" d="M267.1,274.2c0.3-0.3,4.2-5.1,5.5-8.1c0.6-1.4,1-2.8,1.4-4.3c0.3-2.1,1-3.3-3.5-7.3
					c-7.4-6.6-21.3,18-21.3,18l-2,6.3c-0.5,1.1,0.3,2.5,1.2,3.4l0.6,0.3c3.9,1.8,6.5,1.4,8.7-0.1
					C261.3,279.9,262.7,279.8,267.1,274.2z"/>
				<path id="Vector_128" class="st35" d="M267.4,272.1c0.3-0.3,11.6-14.2,4.7-18.5c-6.1-3.8-10.8,1.4-15,7.2
					c-1.2,1.7-4.1,5.3-5.1,6.5c-1.1,1.5-2,3.2-2.7,4.9l-1.1,5c-0.4,1.1,1.4,0.4,2.4,1.3l2-4.2c1.9,1.7,2.4,7.5,4.6,6.1
					C260.8,277.8,262.9,277.7,267.4,272.1z"/>
				<path id="Vector_129" class="st16" d="M261.9,277.5c-1,0.6-3.2,1.9-4.4,2.7c-2.2,1.4-4.9,1-7.5-0.2c-1.3-0.6-3-1.5-2.4-3.3
					l1.6-4.5C251.4,271.7,257,273.8,261.9,277.5z"/>
				<g id="Group_29">
					<path id="Vector_130" class="st36" d="M263,246.8c2.8,4.2,10.2,5.2,13.8,1.5c-0.5,2.4-0.9,4.8-1.5,7.1
						c-2.2,9.7-15.8,6.8-13.6-2.9C262.2,250.6,262.6,248.7,263,246.8z"/>
				</g>
				<g id="green-man-right-arm">
					<path id="Vector_131" class="st37" d="M293,62.6c-0.2,2.2-0.4,4.4-0.6,6.5c-0.1,0.5-0.1,0.9-0.2,1.4c0,0,0.2-1.3,0.1-0.6
						c0,0.2-0.1,0.4-0.1,0.6c-0.1,0.9-0.3,1.8-0.4,2.7c-0.5,2.8-1.2,5.6-2.1,8.4c-0.4,1.2-0.8,2.4-1.3,3.6c-0.4,1.1,0.6-1.3,0.2-0.4
						c-0.1,0.3-0.2,0.5-0.4,0.8c-0.3,0.6-0.5,1.2-0.8,1.7c-1.1,2.4-2.4,4.7-3.6,7c-1.7,3.2-3.3,6.4-4.6,9.8c-1.1,2.9-1.9,6-2.2,9.2
						c-0.5,4.5,0.1,9,0.3,13.5c0,1.4,0,2.9-0.1,4.3c0,0.8-0.1,1.6-0.2,2.4c-0.1,1.3,0.2-1.4,0,0c-0.1,0.4-0.1,0.9-0.2,1.3
						c-0.9,4.5-2.2,8.8-4,13c-0.2,0.8-0.3,1.6-0.2,2.4c0.1,0.8,0.4,1.6,0.8,2.3c0.8,1.4,2.1,2.4,3.6,2.8c3.5,0.8,6.2-1.1,7.5-4.2
						c3-6.9,4.6-14.3,4.9-21.8c0.1-4.6-0.7-9.2-0.5-13.8c0-0.6,0.1-1.1,0.1-1.7c0.1-0.9-0.3,1.8-0.1,0.5c0.1-0.3,0.1-0.7,0.2-1
						c0.3-1.3,0.6-2.7,1.1-4c0.2-0.7,0.5-1.4,0.8-2.1c0.4-1-0.5,1.2-0.1,0.2c0.2-0.4,0.4-0.9,0.6-1.3c0.7-1.5,1.4-2.9,2.2-4.4
						c2.7-4.9,5.1-10,7.1-15.2c2.7-7.6,3.6-15.7,4.2-23.7c0.2-3.2-3-6.2-6.1-6.1c-1.6,0-3.1,0.7-4.2,1.8
						C293.7,59.5,293.1,61,293,62.6L293,62.6z"/>
				</g>
				<path id="Vector_132" class="st38" d="M294.5,56.8l-10.5,30.7c-1,9.4,20.2,12.2,21.7,4.6l7.5-30.4c0.4-2.4,0-4.8-1.3-6.9
					c-1.3-2.1-3.2-3.6-5.5-4.2c-2.4-0.7-5-0.5-7.2,0.7C297,52.5,295.4,54.4,294.5,56.8z"/>
				<path id="Vector_133" class="st39" d="M287.7,83.2c4.8,2.5,10.4,3.1,15.5,1.5"/>
				<g id="Group_30">
					<path id="Vector_134" class="st40" d="M314.5,126c-11.9,4.5-24,8.6-36.1,12.6c-3.9,1.3-7.7,2.7-11.5,4.2
						c-2.9,1.1-5.6,2.5-8.1,4.3c-3.2,2.3-6,5.1-8.3,8.3c-1.7,2.4-3.2,5-4.4,7.7c-1,1.9-1.8,3.8-2.5,5.8c-0.3,1.2-0.6,2.5-0.7,3.8
						c-0.8,5.3-1.4,10.6-1.8,15.8c-1,11.7-1.5,23.7-0.2,35.4c0.2,2,0.5,4.1,0.8,6.1c0.4,2.2,2.5,4.6,4.3,5.6
						c2.2,1.3,4.8,1.6,7.3,0.9c2.4-0.7,4.4-2.2,5.6-4.3c1.2-2.2,1.5-4.8,1-7.3c-0.1-0.7-0.2-1.4-0.3-2.1l0.3,2.5
						c-1.7-13-1-26.3,0.2-39.3c0.3-3,0.6-5.9,1-8.9l-0.3,2.5c0.2-2.2,0.6-4.4,1.2-6.5l-1,2.3c1.5-3.9,3.6-7.7,6.1-11.1l-1.5,1.9
						c1.2-1.5,2.5-2.9,4.1-4.1l-1.9,1.5c2.3-1.7,4.8-3.1,7.5-4.2l-2.3,1c4.1-1.7,8.4-3.1,12.6-4.5c6.4-2.1,12.8-4.3,19.2-6.5
						c4.9-1.7,9.8-3.5,14.6-5.4c2.3-0.7,4.3-2.3,5.6-4.3c1.3-2.2,1.6-4.8,1-7.3c-0.7-2.4-2.2-4.4-4.3-5.6
						C319.7,125.8,316.9,125.1,314.5,126L314.5,126z"/>
				</g>
				<g id="Group_31">
					<path id="Vector_135" class="st34" d="M239.7,256.2c0.4-0.1,5.1-3.1,5.5-3.2c0.6-0.2,7-2.6,8-3c2.1-0.9,7.1-1.1,5.6-7.9
						c-2.1-9.9-29.1,2.5-29.1,2.5l-9.3,5.7c-0.5,0.3-1,0.8-1.2,1.3c-0.3,0.6-0.3,1.2-0.2,1.8c0.4,2.4,3.1,4.4,5.9,4.4
						C229.8,257.7,232.1,258.5,239.7,256.2z"/>
					<path id="Vector_136" class="st35" d="M240.4,253.3c0.4-0.2,4.7-3.2,5.2-3.4c0.6-0.2,7.9-2.7,8.9-3.1c2-1,6.8-2,4.7-8.5
						c-3.1-9.5-29.7,4.3-29.7,4.3l-8.6,5.9c-0.5,0.3-0.9,0.8-1.1,1.4c-0.2,0.6-0.2,1.2-0.1,1.8c0.6,2.3,3.5,4.1,6.3,3.9
						C230.8,255.2,233.2,256,240.4,253.3z"/>
					<path id="Vector_137" class="st16" d="M231.1,255.4c-1.2,0-3.9,0.1-5.4,0.2c-1.3,0.1-2.6-0.2-3.7-1c-1.1-0.7-1.9-1.8-2.3-3
						c-0.2-0.6-0.1-1.2,0.1-1.8c0.2-0.6,0.6-1,1.1-1.4l4.2-2.9C228.3,246.5,230.5,249.9,231.1,255.4z"/>
					<g id="Group_32">
						<path id="Vector_138" class="st36" d="M244.8,226.2c3.2,3.9,10.9,4.3,14.3,0.3c-0.2,2.4-0.5,4.8-0.9,7.3
							c-1.4,9.8-15.5,8.2-14.1-1.7C244.4,230.1,244.6,228.1,244.8,226.2z"/>
					</g>
				</g>
				<path id="Vector_139" class="st40" d="M262.7,224.6l-0.2,6.8c0,0.3-0.1,0.6-0.3,0.8c-1.3,1.9-3.2,3.3-5.3,4.2
					c-2.1,0.8-4.5,1.1-6.8,0.6c-6.3-1.1-9.6-3.2-10.9-4.1c-0.2-0.1-0.4-0.3-0.5-0.6s-0.1-0.5-0.1-0.7l0.6-7c0-0.2,0.1-0.5,0.2-0.7
					c0.1-0.2,0.3-0.4,0.5-0.5c0.2-0.1,0.4-0.2,0.7-0.2c0.2,0,0.5,0.1,0.7,0.2c3.2,1.9,10.3,4.8,19.3-0.2c0.2-0.1,0.5-0.2,0.7-0.2
					c0.2,0,0.5,0.1,0.7,0.2s0.4,0.3,0.5,0.5C262.7,224.1,262.7,224.3,262.7,224.6z"/>
				<g id="green-man-left-leg">
					<path id="Vector_140" class="st40" d="M328.3,147.5c-9.2,5.5-18.5,10.8-27.5,16.7c-5.6,3.7-11.5,7.7-15.8,12.9
						c-4.1,5-7.2,10.7-9.1,16.8c-1.9,5.6-3.1,11.3-5,16.9c-4,12.1-7.8,24.2-10.8,36.6c-0.6,2.5-0.3,5.1,0.9,7.3
						c1.3,2.1,3.3,3.7,5.6,4.3c4.9,1.1,10.3-1.5,11.6-6.6c2.6-10.9,5.9-21.6,9.4-32.2c1-3,2-6,2.9-9c0.8-2.6,1.4-5.3,2.2-7.9
						c0.8-2.9,1.7-5.7,2.9-8.5l-1,2.3c1.1-2.7,2.6-5.3,4.4-7.7l-1.5,1.9c2.3-2.9,5-5.5,8-7.7l-1.9,1.5c4.3-3.2,8.8-6.2,13.4-9
						c6.9-4.3,13.9-8.4,20.8-12.5c4.2-2.5,6.2-8.6,3.4-12.9C338.5,146.7,332.9,144.8,328.3,147.5L328.3,147.5z"/>
				</g>
				<path id="Vector_141" class="st40" d="M282.8,246.4l-1.6,7.1c-0.1,0.3-0.2,0.6-0.4,0.8c-1.6,1.7-3.7,2.8-6,3.3
					c-2.3,0.5-4.7,0.3-6.9-0.6c-5.9-2.3-8.8-5-9.9-6.3c-0.2-0.2-0.3-0.4-0.3-0.7c-0.1-0.3,0-0.5,0-0.8l2.1-7.1
					c0-0.2,0.2-0.5,0.3-0.6c0.2-0.2,0.4-0.3,0.6-0.4c0.2-0.1,0.5-0.1,0.7-0.1c0.2,0,0.5,0.1,0.6,0.3c2.8,2.6,9.1,6.9,19,3.3
					c0.2-0.1,0.5-0.1,0.7,0c0.2,0.1,0.5,0.2,0.7,0.4c0.2,0.2,0.3,0.4,0.4,0.6C282.9,245.9,282.9,246.1,282.8,246.4z"/>
				<path id="Vector_142" class="st41" d="M313.1,164.2l-21.6-12.5c-2.5-1.4-4.3-3.8-5-6.6c-0.7-2.8-0.4-5.7,1.1-8.2
					c1.4-2.5,3.8-4.3,6.6-5c2.8-0.7,5.7-0.4,8.2,1.1l21.6,12.5c2.5,1.4,4.3,3.8,5,6.6c0.7,2.8,0.4,5.7-1.1,8.2
					c-1.4,2.5-3.8,4.3-6.6,5S315.6,165.6,313.1,164.2z"/>
				<path id="Vector_143" class="st42" d="M289.2,129.1c1.4,2.4,9-21,6.1-66.2l57.8,26.3c-4.2,29.7,1.2,29.8-9.4,66.4L289.2,129.1z"
					/>
				<path id="Vector_144" class="st38" d="M322,143c1.3,2.3,20.7-9.1,20.8-46.1c0-4.7,0.6-5.1,5.1-3.8l6.1-3.8
					c-1.9,24.1,1.6,31.1-3.4,53.9c-0.4,1.8-1.2,3.5-2.4,4.9c-1.2,1.4-2.7,2.5-4.4,3.2c-1.7,0.7-3.6,1-5.4,0.8
					c-1.8-0.2-3.6-0.8-5.2-1.8L322,143z"/>
				<path id="Vector_145" class="st42" d="M329.8,162.1c-16.4-5.3-32.1-11.2-41.6-22c-4.5-2.4-4.2-7,0.9-10.1
					c5-3.2,12.2-7.7,16.8-5.3l39.6,23.2c4.5,2.4,1.9,5.6-3.2,8.7l-0.2-2.9C337.1,156.8,334.3,164.5,329.8,162.1z"/>
				<path id="Vector_146" class="st38" d="M345.3,150.2l-10.9-16.9c-25.3,33.3-40.7,9.1-46.7,6c8.9,9.7,24,15.2,38.5,21.1
					c4.4,2.7,12.2,2.6,17.5-0.2C349,157.5,349.7,152.9,345.3,150.2z"/>
				<path id="Vector_147" class="st38" d="M340.8,67.5l-28.4-9.1l5.2-13.9c8.7,0.4,14.7,3.6,21.7,9.1L340.8,67.5z"/>
				<path id="Vector_148" class="st42" d="M299,52.4c-3.7,4.2-3.5,7-3.8,13c-0.1,2.9,0.7,5.7,2.3,8.1c1.6,2.4,4,4.2,6.7,5.2l57,20.3
					c0,0,4.9-22.1-6.1-29.7c-5.9-4.1-15.1-10.5-22.3-15.6C322.2,46.3,307.6,42.7,299,52.4z"/>
				<path id="Vector_149" class="st43" d="M320.6,60.9c1.2,0.5,2.6,0.7,3.9,0.6l5.9,11.8l-0.4,0.3c-0.3,0.3-0.6,0.4-0.9,0.6
					c-0.3,0.1-0.7,0.1-1.1,0.1c-0.4,0-0.7-0.2-1-0.4c-0.3-0.2-0.6-0.5-0.7-0.8L320.6,60.9z"/>
				<path id="Vector_150" class="st43" d="M327.4,63.6c-1.2-0.2-2.3-0.7-3.2-1.4l-11,6.2l0.1,0.4c0.1,0.3,0.2,0.6,0.4,0.9
					c0.2,0.3,0.5,0.5,0.8,0.6c0.3,0.1,0.6,0.2,1,0.2c0.3,0,0.7-0.1,0.9-0.3L327.4,63.6z"/>
				<g id="Group_33">
					<path id="Vector_151" class="st43" d="M322.8,72.2c-0.1,0.8-0.7,1.1-1.3,0.6c-0.4-0.3-0.6-0.6-0.8-1c-0.2-0.4-0.3-0.8-0.3-1.3
						c0.1-0.8,0.7-1.1,1.3-0.6c0.4,0.3,0.6,0.6,0.8,1C322.7,71.3,322.8,71.7,322.8,72.2z"/>
					<path id="Vector_152" class="st43" d="M322.4,78c-0.1,0.8-0.7,1.1-1.3,0.6c-0.4-0.3-0.6-0.6-0.8-1c-0.2-0.4-0.3-0.8-0.3-1.3
						c0.1-0.8,0.7-1.1,1.3-0.6c0.4,0.3,0.6,0.6,0.8,1C322.3,77.1,322.4,77.5,322.4,78z"/>
					<path id="Vector_153" class="st43" d="M322,83.7c-0.1,0.8-0.7,1.1-1.3,0.6c-0.4-0.3-0.6-0.6-0.8-1c-0.2-0.4-0.3-0.8-0.3-1.3
						c0.1-0.8,0.7-1.1,1.3-0.6c0.4,0.3,0.6,0.6,0.8,1C321.9,82.9,322,83.3,322,83.7z"/>
				</g>
				<path id="Vector_154" class="st44" d="M326.1,61.9c0,0-7.1-0.5-7.6-13l-4.7-1c-0.7,0.5-2,0-3,4.1c-0.5,2.4-0.6,5-0.1,7.4
					l1.3,7.2c0.1,0.4,0.2,0.7,0.5,1c0.2,0.3,0.5,0.5,0.9,0.7c0.3,0.2,0.7,0.2,1.1,0.2c0.4,0,0.8-0.1,1.1-0.3L326.1,61.9z"/>
				<path id="Vector_155" class="st45" d="M326.3,61.9c-1.2-0.2-2.3-0.7-3.2-1.4l-11,6.2l0.1,0.4c0.1,0.3,0.2,0.6,0.4,0.9
					c0.2,0.3,0.5,0.5,0.8,0.6c0.3,0.1,0.6,0.2,1,0.2c0.3,0,0.6-0.1,0.9-0.3L326.3,61.9z"/>
				<g id="green-man-head">
					<path id="Vector_156" class="st37" d="M322.4,59.6l-4.7-25l15.1,5.9l3.8,20.4C337.5,64.3,326.2,72.5,322.4,59.6z"/>
					<path id="Vector_157" class="st37" d="M317,4.3l-5.7,0.7c-7.1,0.9-12.1,7.4-11.2,14.5l3.2,25.2c0.9,7.1,7.4,12.1,14.5,11.2
						l5.7-0.7c7.1-0.9,12.1-7.4,11.2-14.5l-3.2-25.2C330.6,8.5,324.1,3.4,317,4.3z"/>
					<path id="Vector_158" class="st40" d="M320,23.4c-5.2,2.9-11.4,3.7-17.2,2.1c-6.2-1.8-11-8.5-6.7-13.3
						c2.3-2.6,8.9-6.1,14.1-8.8c14.8-7.7,31.9-2,34.1,15.6c0,0,3.7,24-10,28.9l-1.2-3.4c0,0,5.2-5.8-1.5-9.7c-1.2-0.8-2.2-1.9-3-3.2
						c-0.7-1.3-1.2-2.7-1.3-4.2C327.2,24.3,322.6,21.8,320,23.4z"/>
					<path id="Vector_159" class="st35" d="M333.5,30.8l-11.8,8.8c-0.1,0.1-0.3,0.1-0.4,0.1c-0.2,0-0.3-0.1-0.4-0.2
						c-0.1-0.1-0.1-0.3-0.1-0.4c0-0.2,0.1-0.3,0.2-0.4l11.8-8.8c0.1-0.1,0.3-0.1,0.4-0.1c0.2,0,0.3,0.1,0.4,0.2
						c0,0.1,0.1,0.1,0.1,0.2c0,0.1,0,0.2,0,0.2c0,0.1,0,0.2-0.1,0.2C333.6,30.7,333.5,30.8,333.5,30.8z"/>
					<path id="Vector_160" class="st37" d="M336.6,40.7c-1.8,2.2-4.3,2-5.7-0.3c-0.6-1.3-0.9-2.8-0.8-4.2c0.1-1.4,0.7-2.8,1.6-4
						c1.8-2.2,4.3-2,5.7,0.3c0.6,1.3,0.9,2.8,0.8,4.2C338,38.2,337.5,39.5,336.6,40.7z"/>
					<path id="Vector_161" class="st46" d="M321.5,55.4c0.3,0.6,7.5-2.3,7.2-3.1c0,0-2.9,4.9-6.4,6.7L321.5,55.4z"/>
					<path id="Vector_162" class="st35" d="M311.3,35.4l-1.7-0.6c-0.5-0.2-0.8-0.6-0.7-0.9c0.1-0.2,0.3-0.3,0.5-0.4
						c0.2-0.1,0.4,0,0.6,0.1l1.7,0.6c0.5,0.2,0.8,0.6,0.7,0.9C312.3,35.4,311.8,35.6,311.3,35.4z"/>
					<path id="Vector_163" class="st47" d="M306.3,39.3l-2.2-1.1c-1-0.6-1.8-1.4-2.4-2.4c-0.6-1-0.9-2-1-3.2l-0.2-2.2
						c0-0.6,0.3-1,0.8-0.7L308,33c0.3,0.2,0.5,0.4,0.7,0.7c0.2,0.3,0.3,0.6,0.3,0.9l0.2,2.2C309.3,39.1,308,40.2,306.3,39.3z"/>
					<path id="Vector_164" class="st47" d="M317.6,44.6l-2.2-1.1c-1-0.6-1.8-1.4-2.4-2.4c-0.6-1-0.9-2-1-3.2l-0.2-2.2
						c0-0.6,0.3-1,0.8-0.7l6.6,3.2c0.3,0.2,0.5,0.4,0.7,0.7c0.2,0.3,0.3,0.6,0.3,0.9l0.2,2.2C320.6,44.3,319.3,45.5,317.6,44.6z"/>
					<g id="Group_34">
						<path id="Vector_165" class="st35" d="M312.2,35.1c0,0,0-0.1,0-0.1c0,0,0,0,0-0.1c0,0,0.1-0.1,0.1-0.1L312,35
							c0,0-0.1,0.1-0.1,0.1c0,0,0,0,0,0c0,0,0,0,0,0c0,0,0,0,0,0l0,0l0,0v0v0v0v0c0,0,0,0.1,0,0.1l0.3-0.2
							C312.2,35.2,312.2,35.1,312.2,35.1L312.2,35.1z"/>
						<path id="Vector_166" class="st35" d="M319.7,44.2c-0.1,0-0.1,0-0.2,0.1c0,0,0,0,0,0c-0.1,0-0.2,0-0.2,0l0,0
							c-0.1,0-0.2,0-0.2,0h0c-0.1,0-0.2,0-0.3,0h0c-0.1,0-0.2,0-0.3-0.1h0c-0.1,0-0.2-0.1-0.3-0.1l0,0c-0.1,0-0.2-0.1-0.3-0.1
							l-1.8-0.9c-0.1-0.1-0.2-0.1-0.3-0.2l0,0c-0.1-0.1-0.2-0.1-0.3-0.2l0,0c-0.1-0.1-0.2-0.1-0.3-0.2l0,0c-0.1-0.1-0.2-0.2-0.3-0.2
							l0,0c-0.1-0.1-0.2-0.2-0.3-0.3l0,0c-0.1-0.1-0.2-0.2-0.3-0.3l0,0c-0.1-0.1-0.2-0.2-0.2-0.3c0-0.1-0.1-0.1-0.1-0.2
							c0-0.1-0.1-0.1-0.1-0.2c0,0,0-0.1-0.1-0.1c-0.1-0.1-0.1-0.2-0.2-0.3l0,0c-0.1-0.1-0.1-0.2-0.2-0.3l0,0
							c-0.1-0.1-0.1-0.2-0.2-0.3l0,0c-0.1-0.1-0.1-0.2-0.1-0.4l0,0c0-0.1-0.1-0.2-0.1-0.3l0,0c0-0.1-0.1-0.2-0.1-0.4v0
							c0-0.1-0.1-0.2-0.1-0.4v0c0-0.1,0-0.2,0-0.4l-0.2-2.8l-0.3,0.2l0.2,2.8c0,0,0,0.1,0,0.1c0,0,0,0.1,0,0.1c0,0,0,0,0,0.1v0
							l0,0.1c0,0,0,0.1,0,0.1s0,0.1,0,0.2v0v0c0,0,0,0.1,0,0.1s0,0.1,0,0.2l0,0.1l0,0c0,0,0,0,0,0.1c0,0.1,0,0.1,0.1,0.2
							c0,0.1,0,0.1,0,0.1l0,0l0,0c0,0.1,0,0.1,0.1,0.2l0.1,0.2l0,0l0,0c0,0,0,0.1,0,0.1c0,0,0,0.1,0.1,0.1c0,0,0,0.1,0.1,0.1l0,0
							l0,0l0.1,0.1c0,0.1,0.1,0.1,0.1,0.2l0,0l0,0c0,0,0.1,0.1,0.1,0.1c0,0,0.1,0.1,0.1,0.2c0,0,0,0.1,0.1,0.1l0,0
							c0,0,0.1,0.1,0.1,0.1c0,0.1,0.1,0.1,0.1,0.2l0,0c0.1,0.1,0.1,0.2,0.2,0.3l0,0c0.1,0.1,0.1,0.1,0.2,0.2l0.1,0.1l0,0
							c0,0,0.1,0.1,0.1,0.1l0.1,0.1l0,0l0,0c0,0,0.1,0.1,0.1,0.1c0,0,0.1,0.1,0.1,0.1l0,0l0,0l0.1,0.1c0,0,0.1,0.1,0.1,0.1l0.1,0
							l0,0l0.1,0c0,0,0.1,0.1,0.1,0.1l0.1,0.1l0,0l0,0c0,0,0.1,0.1,0.1,0.1c0,0,0.1,0,0.1,0.1l0,0l1.8,0.9l0.1,0c0,0,0.1,0,0.1,0.1
							l0.1,0l0,0l0,0l0.1,0c0,0,0.1,0,0.1,0l0,0h0l0.1,0c0,0,0.1,0,0.1,0c0,0,0,0,0.1,0h0l0,0c0,0,0.1,0,0.1,0c0,0,0.1,0,0.1,0h0.1
							c0.1,0,0.1,0,0.1,0c0,0,0,0,0.1,0l0,0c0,0,0,0,0,0c0.1,0,0.1,0,0.2,0c0,0,0,0,0,0c0.1,0,0.1,0,0.2-0.1l0,0
							c0.1,0,0.2-0.1,0.2-0.1l0.3-0.2C319.8,44.1,319.7,44.2,319.7,44.2z"/>
						<path id="Vector_167" class="st35" d="M312.8,34L312.8,34l-0.1,0l-0.1,0l-0.1,0l-0.1,0h0l0,0l-0.1,0l-0.1,0l-0.1,0h-0.1h-0.1
							l-0.1,0c0,0-0.1,0-0.1,0c0,0-0.1,0-0.1,0c0,0-0.1,0-0.1,0.1l-0.3,0.2c0.1,0,0.1-0.1,0.2-0.1c0.1,0,0.2,0,0.2,0h0
							c0.1,0,0.2,0,0.3,0c0.1,0,0.2,0.1,0.3,0.1l6.9,3.3l0.3-0.2L312.8,34z"/>
						<g id="Group_35">
							<path id="Vector_168" class="st35" d="M319.3,37.6c0.4,0.2,0.8,0.5,1,0.9c0.3,0.4,0.4,0.8,0.5,1.3l0.2,2.8
								c0.2,2.4-1.5,3.5-3.6,2.4l-1.8-0.9c-1.1-0.6-2.1-1.5-2.9-2.6c-0.7-1.1-1.2-2.3-1.4-3.6l-0.2-2.8c-0.1-0.9,0.5-1.2,1.3-0.9
								L319.3,37.6z M320.3,42.3l-0.2-2.8c0-0.2-0.1-0.5-0.2-0.7c-0.1-0.2-0.3-0.4-0.5-0.5l-6.9-3.3c-0.4-0.2-0.7,0-0.7,0.4l0.2,2.8
								c0.1,1.1,0.5,2.1,1.1,3c0.6,0.9,1.4,1.6,2.4,2.2l1.8,0.9C319.1,45.1,320.5,44.2,320.3,42.3"/>
						</g>
						<path id="Vector_169" class="st35" d="M321.2,39.5C321.2,39.5,321.2,39.5,321.2,39.5c0-0.1,0-0.1,0-0.1s0,0,0-0.1
							c0,0,0,0,0-0.1c0,0,0,0,0-0.1c0,0,0,0,0-0.1c0,0,0,0,0-0.1c0,0,0,0,0-0.1l0-0.1l0-0.1c0,0,0,0,0-0.1l0-0.1l0-0.1l0-0.1
							c0,0,0,0,0-0.1s0,0,0-0.1l0-0.1c0,0,0-0.1-0.1-0.1c0-0.1-0.1-0.1-0.1-0.2c0-0.1-0.1-0.1-0.1-0.1c0,0,0,0-0.1-0.1l-0.1-0.1
							l-0.1-0.1c0,0,0,0-0.1-0.1l-0.1-0.1l-0.1-0.1c0,0,0,0-0.1-0.1c0,0,0,0-0.1,0l-0.1,0l-0.1,0l-0.1,0l-0.1,0l-0.1,0l0,0l-0.3,0.2
							l0,0l0.1,0l0.1,0l0.1,0l0.1,0l0.1,0l0.1,0l0.1,0.1l0.1,0.1c0,0,0,0,0.1,0.1L320,38l0.1,0.1c0,0,0,0,0.1,0.1l0.1,0.1
							c0,0,0.1,0.1,0.1,0.1c0,0,0.1,0.1,0.1,0.2c0,0,0,0.1,0.1,0.1s0,0.1,0,0.1l0,0.1l0,0.1l0,0.1l0,0.1l0,0.1c0,0,0,0,0,0.1
							s0,0,0,0.1s0,0,0,0.1s0,0,0,0.1l0,0.1l0,0.1c0,0,0,0,0,0.1c0,0,0,0,0,0.1c0,0,0,0,0,0.1s0,0,0,0.1c0,0,0,0,0,0.1l0,0.1
							l0.2,2.7l0,0.3c0,0.1,0,0.1,0,0.2c0,0.1,0,0.1,0,0.2c0,0.1,0,0.1,0,0.2c0,0.1,0,0.1,0,0.2c0,0.1,0,0.1,0,0.2
							c0,0.1,0,0.1-0.1,0.2c0,0.1,0,0.1-0.1,0.2c0,0.1-0.1,0.2-0.1,0.3c-0.1,0.3-0.4,0.5-0.6,0.7l0.3-0.2c0.3-0.2,0.5-0.4,0.6-0.7
							c0-0.1,0.1-0.2,0.1-0.3c0-0.1,0.1-0.1,0.1-0.2c0-0.1,0-0.1,0.1-0.2c0-0.1,0-0.1,0-0.2c0-0.1,0-0.1,0-0.2c0-0.1,0-0.1,0-0.2
							s0-0.1,0-0.2s0-0.1,0-0.2l0-0.2L321.2,39.5L321.2,39.5z"/>
					</g>
					<g id="Group_36">
						<path id="Vector_170" class="st35" d="M300.9,29.8c0,0,0-0.1,0-0.1c0,0,0,0,0-0.1c0,0,0.1-0.1,0.1-0.1l-0.3,0.2
							c0,0-0.1,0.1-0.1,0.1c0,0,0,0,0,0c0,0,0,0,0,0l0,0l0,0l0,0v0v0v0v0c0,0,0,0.1,0,0.1l0.3-0.2C300.9,29.9,300.9,29.9,300.9,29.8
							L300.9,29.8z"/>
						<path id="Vector_171" class="st35" d="M308.3,39c-0.1,0-0.1,0-0.2,0.1c0,0,0,0,0,0c-0.1,0-0.2,0-0.2,0l0,0c-0.1,0-0.2,0-0.2,0
							h0c-0.1,0-0.2,0-0.3,0h0c-0.1,0-0.2,0-0.3-0.1h0c-0.1,0-0.2-0.1-0.3-0.1l0,0c-0.1,0-0.2-0.1-0.3-0.1l-1.8-0.9
							c-0.1-0.1-0.2-0.1-0.3-0.2l0,0c-0.1-0.1-0.2-0.1-0.3-0.2l0,0c-0.1-0.1-0.2-0.1-0.3-0.2l0,0c-0.1-0.1-0.2-0.2-0.3-0.2l0,0
							c-0.1-0.1-0.2-0.2-0.3-0.3l0,0c-0.1-0.1-0.2-0.2-0.3-0.3l0,0c-0.1-0.1-0.2-0.2-0.2-0.3c0-0.1-0.1-0.1-0.1-0.2
							c0-0.1-0.1-0.1-0.1-0.2c0,0,0-0.1-0.1-0.1c-0.1-0.1-0.1-0.2-0.2-0.3l0,0c-0.1-0.1-0.1-0.2-0.2-0.3l0,0
							c-0.1-0.1-0.1-0.2-0.2-0.3l0,0c-0.1-0.1-0.1-0.2-0.2-0.4l0,0c0-0.1-0.1-0.2-0.1-0.3l0,0c0-0.1-0.1-0.2-0.1-0.4v0
							c0-0.1-0.1-0.2-0.1-0.4v0c0-0.1,0-0.2,0-0.4l-0.2-2.8l-0.3,0.2l0.2,2.8c0,0,0,0.1,0,0.1c0,0,0,0.1,0,0.1c0,0,0,0,0,0.1v0
							l0,0.1c0,0,0,0.1,0,0.2c0,0.1,0,0.1,0,0.2v0v0c0,0,0,0.1,0,0.1c0,0,0,0.1,0,0.2l0,0.1l0,0l0,0.1c0,0.1,0,0.1,0.1,0.2
							c0,0.1,0,0.1,0,0.1l0,0l0,0c0,0.1,0,0.1,0.1,0.2s0,0.1,0.1,0.2l0,0l0,0l0,0.1c0,0,0,0.1,0.1,0.1c0,0,0,0.1,0.1,0.1l0,0l0,0
							c0,0,0.1,0.1,0.1,0.1c0,0,0.1,0.1,0.1,0.2l0,0l0,0c0,0,0.1,0.1,0.1,0.1c0,0,0.1,0.1,0.1,0.2l0.1,0.1l0,0c0,0,0.1,0.1,0.1,0.1
							c0,0.1,0.1,0.1,0.1,0.2l0,0c0.1,0.1,0.1,0.2,0.2,0.3l0,0c0.1,0.1,0.1,0.1,0.2,0.2s0.1,0.1,0.1,0.1l0,0c0,0,0.1,0.1,0.1,0.1
							l0.1,0.1l0,0l0,0c0,0,0.1,0.1,0.1,0.1c0,0,0.1,0.1,0.1,0.1l0,0l0,0l0.1,0.1c0,0,0.1,0.1,0.1,0.1l0.1,0l0,0l0,0
							c0,0,0.1,0.1,0.1,0.1l0.1,0.1l0,0l0,0c0,0,0.1,0.1,0.1,0.1l0.1,0.1l0,0L306,39l0.1,0c0,0,0.1,0,0.1,0.1l0.1,0l0,0l0,0l0.1,0
							c0,0,0.1,0,0.1,0l0,0h0l0.1,0c0,0,0.1,0,0.1,0l0.1,0h0l0,0c0,0,0.1,0,0.1,0h0.1h0.1c0,0,0.1,0,0.1,0c0,0,0,0,0.1,0l0,0
							c0,0,0,0,0,0c0.1,0,0.1,0,0.2,0c0,0,0,0,0,0c0.1,0,0.1,0,0.2-0.1l0,0c0.1,0,0.2-0.1,0.2-0.1l0.3-0.2
							C308.5,38.9,308.4,39,308.3,39z"/>
						<path id="Vector_172" class="st35" d="M301.5,28.8L301.5,28.8l-0.1,0l-0.1,0l-0.1,0l-0.1,0h0l0,0l-0.1,0l-0.1,0c0,0,0,0-0.1,0
							h-0.1c0,0,0,0-0.1,0c0,0,0,0-0.1,0c0,0-0.1,0-0.1,0c0,0-0.1,0-0.1,0c0,0-0.1,0-0.1,0.1l-0.3,0.2c0.1,0,0.1-0.1,0.2-0.1
							c0.1,0,0.2,0,0.2,0h0c0.1,0,0.2,0,0.3,0c0.1,0,0.2,0.1,0.3,0.1l6.9,3.3l0.3-0.2L301.5,28.8z"/>
						<g id="Group_37">
							<path id="Vector_173" class="st35" d="M308,32.3c0.4,0.2,0.8,0.5,1,0.9c0.3,0.4,0.4,0.8,0.5,1.3l0.2,2.8
								c0.2,2.4-1.5,3.5-3.7,2.4l-1.8-0.9c-1.2-0.6-2.1-1.5-2.9-2.6c-0.7-1.1-1.2-2.3-1.4-3.6l-0.2-2.8c-0.1-0.9,0.5-1.2,1.3-0.9
								L308,32.3z M309,37l-0.2-2.8c0-0.2-0.1-0.5-0.2-0.7c-0.1-0.2-0.3-0.4-0.5-0.5l-6.9-3.3c-0.4-0.2-0.7,0-0.7,0.4l0.2,2.8
								c0.1,1.1,0.5,2.1,1.1,3c0.6,0.9,1.4,1.6,2.4,2.2L306,39C307.8,39.9,309.1,39,309,37"/>
						</g>
						<path id="Vector_174" class="st35" d="M309.8,34.3C309.8,34.3,309.8,34.2,309.8,34.3c0-0.1,0-0.1,0-0.1s0,0,0-0.1
							c0,0,0,0,0-0.1c0,0,0,0,0-0.1l0-0.1c0,0,0,0,0-0.1c0,0,0,0,0-0.1c0,0,0,0,0-0.1c0,0,0,0,0-0.1s0,0,0-0.1l0-0.1l0-0.1l0-0.1
							c0,0,0,0,0-0.1l0-0.1c0,0,0-0.1,0-0.1s0-0.1-0.1-0.1c0-0.1-0.1-0.1-0.1-0.2s-0.1-0.1-0.1-0.1l-0.1-0.1l-0.1-0.1
							c0,0,0,0-0.1-0.1l-0.1-0.1l-0.1-0.1c0,0,0,0-0.1-0.1l-0.1-0.1l-0.1,0l-0.1,0l-0.1,0l-0.1,0l-0.1,0l-0.1,0l0,0l-0.3,0.2l0,0
							l0.1,0l0.1,0l0.1,0l0.1,0l0.1,0l0.1,0c0,0,0,0,0.1,0.1l0.1,0.1c0,0,0,0,0.1,0.1l0.1,0.1c0,0,0,0,0.1,0.1c0,0,0,0,0.1,0.1
							l0.1,0.1c0,0,0.1,0.1,0.1,0.1c0,0,0.1,0.1,0.1,0.2c0,0,0.1,0.1,0.1,0.1c0,0,0,0.1,0,0.1s0,0,0,0.1l0,0.1l0,0.1l0,0.1
							c0,0,0,0,0,0.1s0,0,0,0.1s0,0,0,0.1s0,0,0,0.1s0,0,0,0.1c0,0,0,0,0,0.1c0,0,0,0,0,0.1l0,0.1c0,0,0,0,0,0.1l0,0.1
							c0,0,0,0,0,0.1c0,0,0,0,0,0.1c0,0,0,0,0,0.1l0.2,2.7l0,0.3c0,0.1,0,0.1,0,0.2c0,0.1,0,0.1,0,0.2c0,0.1,0,0.1,0,0.2
							c0,0.1,0,0.1,0,0.2c0,0.1,0,0.1,0,0.2c0,0.1,0,0.1-0.1,0.2c0,0.1,0,0.2-0.1,0.2c0,0.1-0.1,0.2-0.1,0.3
							c-0.1,0.3-0.4,0.5-0.6,0.7l0.3-0.2c0.3-0.2,0.5-0.4,0.6-0.7c0-0.1,0.1-0.2,0.1-0.3c0-0.1,0.1-0.1,0.1-0.2c0-0.1,0-0.1,0.1-0.2
							c0-0.1,0-0.1,0-0.2c0-0.1,0-0.1,0-0.2c0-0.1,0-0.1,0-0.2c0-0.1,0-0.1,0-0.2s0-0.1,0-0.2l0-0.2L309.8,34.3L309.8,34.3z"/>
					</g>
					<path id="Vector_175" class="st35" d="M300.8,29.6l-1-0.3c-0.3-0.1-0.4-0.3-0.4-0.5c0.1-0.1,0.2-0.2,0.3-0.2c0.1,0,0.2,0,0.4,0
						l1,0.3c0.3,0.1,0.4,0.3,0.4,0.5c-0.1,0.1-0.2,0.2-0.3,0.2C301.1,29.7,300.9,29.7,300.8,29.6z"/>
					<path id="Vector_176" class="st35" d="M321.2,39.2l-1-0.3c-0.3-0.1-0.4-0.3-0.4-0.5c0.1-0.1,0.2-0.2,0.3-0.2c0.1,0,0.2,0,0.4,0
						l1,0.3c0.3,0.1,0.4,0.3,0.4,0.5C321.8,39.2,321.5,39.3,321.2,39.2z"/>
				</g>
				<path id="Vector_177" class="st44" d="M322.5,61.1c0,0,7.9,3.3,16.7-7.5l4.8,6.9c0.4,1,0.4,1.2-0.4,2l-11.4,10.8
					c-0.3,0.3-0.7,0.5-1.1,0.7c-0.4,0.1-0.8,0.2-1.2,0.1c-0.4-0.1-0.8-0.2-1.2-0.4c-0.4-0.2-0.6-0.6-0.9-0.9L322.5,61.1z"/>
				<path id="Vector_178" class="st45" d="M322.3,61c1.2,0.5,2.6,0.7,3.9,0.6l5.9,11.8l-0.4,0.3c-0.3,0.3-0.6,0.4-0.9,0.6
					c-0.3,0.1-0.7,0.1-1.1,0.1c-0.4,0-0.7-0.2-1-0.4c-0.3-0.2-0.6-0.5-0.7-0.8L322.3,61z"/>
				<path id="Vector_179" class="st37" d="M284.2,150.6c-1.8,0.3-3.7-0.2-5.2-1.3c-1.5-1.1-2.5-2.7-2.8-4.6l-2.1-13.2
					c-0.3-1.8,0.2-3.7,1.3-5.2c1.1-1.5,2.7-2.5,4.6-2.8c1.8-0.3,3.7,0.2,5.2,1.3c1.5,1.1,2.5,2.7,2.8,4.6l2.1,13.2
					c0.3,1.8-0.2,3.7-1.3,5.2C287.7,149.2,286.1,150.3,284.2,150.6z"/>
				<path id="Vector_180" class="st48" d="M322.7,159.9l0-1.5l-1.9,0.7l-0.4-0.9l-48.1-27.8c-0.4-0.2-0.8-0.2-1.1-0.2
					c-0.4,0-0.8,0.1-1.1,0.3l-20.7,12v-0.3l-3.8,1.5v1.6h0c0.1,0.2,0.2,0.3,0.4,0.4l50,28.9c0.4,0.2,0.8,0.2,1.1,0.2
					c0.4,0,0.8-0.1,1.1-0.3l24-13.8c0.1-0.1,0.3-0.2,0.4-0.3C322.6,160.2,322.7,160.1,322.7,159.9L322.7,159.9z"/>
				<path id="Vector_181" class="st16" d="M295.9,173l-50-28.9c-0.6-0.3-0.5-0.9,0.2-1.3l24-13.8c0.3-0.2,0.7-0.3,1.1-0.3
					c0.4,0,0.8,0.1,1.1,0.2l50,28.9c0.6,0.3,0.5,0.9-0.2,1.3l-24,13.8c-0.3,0.2-0.7,0.3-1.1,0.3C296.6,173.2,296.3,173.2,295.9,173z
					"/>
				<path id="Vector_182" class="st48" d="M299.3,154.4l-12.1-7c-0.1-0.1-0.1-0.2,0-0.3l5.8-3.4c0.1,0,0.2-0.1,0.3-0.1
					s0.2,0,0.3,0.1l12.1,7c0.1,0.1,0.1,0.2,0,0.3l-5.8,3.4c-0.1,0-0.2,0.1-0.3,0.1C299.5,154.4,299.4,154.4,299.3,154.4z"/>
				<path id="Vector_183" class="st16" d="M294.6,140.5c-0.1-0.7-0.4-1.4-0.8-2c-0.4-0.6-0.9-1.1-1.5-1.5l-49.7-28.2
					c-0.2-0.1-0.3-0.2-0.5-0.2c-0.2,0-0.4,0-0.6,0l0,0c-0.1,0-0.2,0.1-0.3,0.2l-1.6,1.7l1.5-0.1l4.7,30.5c0.1,0.7,0.4,1.4,0.8,2
					c0.4,0.6,0.9,1.1,1.5,1.5l47,26.7l1.5,1.7l0.2,0.4c1,0.2,3.2-1.4,3.2-1.4L294.6,140.5z"/>
				<path id="Vector_184" class="st49" d="M296.1,174.5l-49.7-28.2c-0.6-0.4-1.1-0.9-1.5-1.5c-0.4-0.6-0.7-1.3-0.8-2l-4.8-30.9
					c-0.2-1.3,0.5-1.9,1.6-1.3l49.7,28.2c0.6,0.4,1.1,0.9,1.5,1.5c0.4,0.6,0.7,1.3,0.8,2l4.8,30.9
					C297.8,174.5,297.1,175.1,296.1,174.5z"/>
				<g id="green-man-left-arm">
					<path id="Vector_185" class="st37" d="M348.1,81.6c0.4,4.4,0.9,8.9,1.5,13.3c0.3,2.2,0.6,4.3,0.9,6.5c0.1,0.8,0.2,1.6,0.3,2.3
						c0,0.2,0.2,1.7,0.1,0.5c-0.2-1.2,0,0.3,0.1,0.6c1,7.6,1.5,15.3,1.5,23c0,2.2,0,4.5-0.2,6.7c-0.1,1.5,0.3-1.4,0,0
						c-0.1,0.4-0.1,0.7-0.2,1.1c-0.2,0.8-0.4,1.6-0.6,2.4c-0.1,0.3-0.2,0.7-0.4,1c0,0.1,0.7-1.6,0.3-0.8c-0.1,0.1-0.1,0.3-0.2,0.4
						c-0.3,0.6-0.7,1.1-1,1.6c-0.1,0.2,1.1-1.3,0.4-0.5c-0.2,0.2-0.4,0.4-0.6,0.6c-0.2,0.2-0.4,0.4-0.6,0.6
						c-0.6,0.6,0.8-0.7,0.8-0.6c0,0.1-0.4,0.3-0.5,0.4c-0.5,0.3-0.9,0.6-1.4,0.8c-0.6,0.3-1.4,0.4,0.5-0.2c-0.3,0.1-0.5,0.2-0.8,0.3
						c-1.2,0.4-2.5,0.7-3.8,0.9c-0.5,0.1-1.8,0.2,0.4,0c-0.3,0-0.6,0.1-0.9,0.1c-0.7,0.1-1.5,0.1-2.2,0.2c-1.6,0.1-3.1,0.2-4.7,0.2
						c-8.3,0.3-16.8,0.6-24.7,3.3c-3,1-5.3,4.3-4.3,7.5c1,3,4.3,5.3,7.5,4.3c1.9-0.6,3.7-1.1,5.6-1.5c0.9-0.2,1.7-0.3,2.6-0.5
						c0.2,0,0.4-0.1,0.7-0.1c1.2-0.2-1.3,0.2-0.5,0.1c0.5-0.1,1-0.1,1.4-0.2c3.5-0.4,7-0.5,10.5-0.6c6.4-0.2,13.3-0.3,19.1-3.4
						c7-3.7,9.5-11.5,9.9-19c0.2-4.7,0.1-9.5-0.2-14.2c-0.2-3.6-0.5-7.3-0.9-10.9c-0.5-4.1-1.1-8.3-1.7-12.4l-0.1-0.6
						c-0.1-0.8,0.2,1.5,0.1,0.5c-0.1-0.6-0.1-1.1-0.2-1.7c-0.1-1.2-0.3-2.3-0.4-3.5c-0.3-2.8-0.6-5.6-0.9-8.5
						c-0.3-3.2-2.6-6.3-6.1-6.1C351.2,75.6,347.8,78.2,348.1,81.6L348.1,81.6z"/>
				</g>
				<path id="Vector_186" class="st37" d="M298.2,156.5c-0.6-1.8-0.4-3.7,0.4-5.4c0.8-1.7,2.3-2.9,4.1-3.5l12.7-4.2
					c1.8-0.6,3.7-0.4,5.4,0.4c1.7,0.8,2.9,2.3,3.5,4.1c0.6,1.8,0.4,3.7-0.4,5.4c-0.8,1.7-2.3,2.9-4.1,3.5l-12.7,4.2
					c-1.8,0.6-3.7,0.4-5.4-0.4C300.1,159.7,298.8,158.2,298.2,156.5z"/>
				<path id="Vector_187" class="st42" d="M343.7,79.9l1.7,32.7c2.6,9.2,23.5,3.9,22-3.8l-4.4-31.2c-0.5-2.4-1.8-4.5-3.7-5.9
					c-1.9-1.4-4.3-2.1-6.8-1.9c-2.5,0.2-4.8,1.4-6.5,3.3C344.5,75,343.6,77.4,343.7,79.9z"/>
				<path id="Vector_188" class="st50" d="M348.8,108.4c5.4,0.6,10.8-1,15.1-4.4"/>
				<path id="Vector_189" class="st16" d="M269.7,144.6c0.3,1.6-1.2,2-3.3,0.8s-4-3.5-4.2-5.1c-0.3-1.6,1.2-2,3.3-0.8
					C267.5,140.7,269.4,143,269.7,144.6z"/>
			</g>
		</g>
	</g>
</g>
</svg>
